<svg width="64" height="64" viewBox="0 0 64 64" fill="none" xmlns="http://www.w3.org/2000/svg">
<path d="M32.0631 50.479L31.6249 49.5801L31.6249 49.5801L32.0631 50.479ZM31.2702 50.479L31.7084 49.5801L31.7084 49.5801L31.2702 50.479ZM49.3333 26.6667C49.3333 33.4231 45.6533 38.8024 41.5232 42.7105C37.398 46.6139 32.9322 48.9428 31.6249 49.5801L32.5013 51.3779C33.8934 50.6992 38.5627 48.2653 42.8978 44.1632C47.228 40.0658 51.3333 34.197 51.3333 26.6667H49.3333ZM31.6667 9C41.4237 9 49.3333 16.9096 49.3333 26.6667H51.3333C51.3333 15.8051 42.5283 7 31.6667 7V9ZM14 26.6667C14 16.9096 21.9096 9 31.6667 9V7C20.8051 7 12 15.8051 12 26.6667H14ZM31.7084 49.5801C30.4011 48.9428 25.9353 46.6139 21.8101 42.7105C17.6801 38.8024 14 33.4231 14 26.6667H12C12 34.197 16.1053 40.0658 20.4355 44.1632C24.7706 48.2653 29.4399 50.6992 30.832 51.3779L31.7084 49.5801ZM31.6249 49.5801C31.6282 49.5785 31.6433 49.5726 31.6667 49.5726C31.69 49.5726 31.7052 49.5785 31.7084 49.5801L30.832 51.3779C31.3646 51.6375 31.9687 51.6375 32.5013 51.3779L31.6249 49.5801ZM38.6667 26.6667C38.6667 30.5327 35.5327 33.6667 31.6667 33.6667V35.6667C36.6372 35.6667 40.6667 31.6372 40.6667 26.6667H38.6667ZM31.6667 19.6667C35.5327 19.6667 38.6667 22.8007 38.6667 26.6667H40.6667C40.6667 21.6961 36.6372 17.6667 31.6667 17.6667V19.6667ZM24.6667 26.6667C24.6667 22.8007 27.8007 19.6667 31.6667 19.6667V17.6667C26.6961 17.6667 22.6667 21.6961 22.6667 26.6667H24.6667ZM31.6667 33.6667C27.8007 33.6667 24.6667 30.5327 24.6667 26.6667H22.6667C22.6667 31.6372 26.6961 35.6667 31.6667 35.6667V33.6667Z" fill="#F7367C"/>
<path d="M52.7846 46.6667C54.891 47.8829 56 49.2625 56 50.6667C56 52.071 54.8911 53.4506 52.7846 54.6667C50.6782 55.8829 47.6485 56.8928 44 57.595C40.3515 58.2971 36.2129 58.6667 32 58.6667C27.7871 58.6667 23.6485 58.2971 20 57.595C16.3515 56.8928 13.3218 55.8829 11.2154 54.6667C9.10895 53.4506 8 52.071 8 50.6667C8 49.2625 9.10895 47.8829 11.2154 46.6667" stroke="#F7367C" stroke-width="2" stroke-linecap="round"/>
</svg>
