<svg width="239" height="80" viewBox="0 0 239 80" fill="none" xmlns="http://www.w3.org/2000/svg">
<path d="M169 28.6667C169 27.7239 169 27.2525 169.293 26.9596C169.586 26.6667 170.057 26.6667 171 26.6667H227C227.943 26.6667 228.414 26.6667 228.707 26.9596C229 27.2525 229 27.7239 229 28.6667V41.3333C229 42.2761 229 42.7475 228.707 43.0404C228.414 43.3333 227.943 43.3333 227 43.3333H221C220.057 43.3333 219.586 43.3333 219.293 43.6262C219 43.9191 219 44.3905 219 45.3333V64.6667C219 65.6095 219 66.0809 218.707 66.3738C218.414 66.6667 217.943 66.6667 217 66.6667H181C180.057 66.6667 179.586 66.6667 179.293 66.3738C179 66.0809 179 65.6095 179 64.6667V45.3333C179 44.3905 179 43.9191 178.707 43.6262C178.414 43.3333 177.943 43.3333 177 43.3333H171C170.057 43.3333 169.586 43.3333 169.293 43.0404C169 42.7475 169 42.2761 169 41.3333V28.6667Z" stroke="#33363F" stroke-width="2"/>
<path d="M175.667 43.3333H222.333" stroke="#33363F" stroke-width="2" stroke-linecap="round"/>
<path d="M199 23.3333L199 66.6667" stroke="#33363F" stroke-width="2" stroke-linecap="round"/>
<path d="M199 23.3333L192.503 16.8362C191.295 15.6287 189.823 14.7189 188.203 14.1788L178.299 10.8775C177.004 10.4458 175.667 11.4097 175.667 12.7749V21.8918C175.667 22.7527 176.218 23.517 177.034 23.7892L185.667 26.6667" stroke="#33363F" stroke-width="2" stroke-linecap="round"/>
<path d="M199 23.3333L205.497 16.8362C206.705 15.6287 208.177 14.7189 209.797 14.1788L219.701 10.8775C220.996 10.4458 222.333 11.4097 222.333 12.7749V21.8918C222.333 22.7527 221.782 23.517 220.966 23.7892L212.333 26.6667" stroke="#33363F" stroke-width="2" stroke-linecap="round"/>
<path d="M26.9043 27.502C25.2897 28.3678 23.8997 28.8008 22.7344 28.8008C21.849 28.8008 21.1491 28.4818 20.6348 27.8438C20.1204 27.1992 19.821 26.4115 19.7363 25.4805C19.7559 24.8034 19.9219 24.0449 20.2344 23.2051C20.5534 22.3587 20.9701 21.4701 21.4844 20.5391C21.9987 19.6081 22.7051 18.4069 23.6035 16.9355C24.502 15.4642 25.1465 14.3932 25.5371 13.7227C24.5475 14.6276 23.0436 16.0306 21.0254 17.9316C19.0137 19.8327 17.2852 21.4408 15.8398 22.7559C14.401 24.0645 13.0697 25.194 11.8457 26.1445C10.6217 27.0885 9.61263 27.707 8.81836 28C8.49284 28.1042 8.17057 28.1562 7.85156 28.1562C7.27865 28.1562 6.73177 27.974 6.21094 27.6094C5.6901 27.2383 5.26693 26.7435 4.94141 26.125C4.61589 25.5 4.4401 24.8197 4.41406 24.084C4.52474 23.14 4.68424 22.4727 4.89258 22.082C5.49154 20.819 6.39323 19.4193 7.59766 17.8828C8.80208 16.3398 10.1009 14.7969 11.4941 13.2539C12.8874 11.7109 14.1406 10.3177 15.2539 9.07422C16.3737 7.82422 16.9336 7.07878 16.9336 6.83789C16.8294 6.73372 16.6699 6.68164 16.4551 6.68164C16.1491 6.68164 15.6934 6.80208 15.0879 7.04297C14.4824 7.27734 13.5319 7.70052 12.2363 8.3125C10.9473 8.91797 10.0586 9.33464 9.57031 9.5625C9.27734 9.69922 8.44401 10.1094 7.07031 10.793C5.69661 11.4766 4.58659 11.9844 3.74023 12.3164C2.90039 12.6419 2.19076 12.8177 1.61133 12.8438C1.24674 12.7461 1.00586 12.6582 0.888672 12.5801C0.771484 12.502 0.654297 12.3359 0.537109 12.082C0.582682 11.3724 0.869141 10.4512 1.39648 9.31836C1.93034 8.18555 2.63021 7.14714 3.49609 6.20312C4.45964 5.13542 5.46549 4.29557 6.51367 3.68359C7.56836 3.0651 8.64583 2.5931 9.74609 2.26758C10.8529 1.94206 12.2656 1.61003 13.9844 1.27148C15.7031 0.926432 17.0736 0.623698 18.0957 0.363281C18.7207 0.200521 19.3197 0.119141 19.8926 0.119141C21.2012 0.119141 22.0964 0.747396 22.5781 2.00391C22.7344 2.40104 22.8125 2.82747 22.8125 3.2832C22.8125 4.23372 22.4707 5.2526 21.7871 6.33984C21.11 7.42708 19.8145 9.08073 17.9004 11.3008C15.9928 13.5143 14.5475 15.2233 13.5645 16.4277C12.5879 17.6257 11.5234 19.1361 10.3711 20.959C10.2214 21.1868 10.1172 21.4277 10.0586 21.6816C10.0586 22.0267 10.3776 22.2513 11.0156 22.3555C11.4388 22.2383 11.7188 22.1471 11.8555 22.082C14.0885 20.6432 16.3411 18.8952 18.6133 16.8379C20.8919 14.7741 23.4473 12.3034 26.2793 9.42578C29.1178 6.54167 31.0514 4.61784 32.0801 3.6543C33.1152 2.68424 33.8932 2.19922 34.4141 2.19922C34.7852 2.19922 34.9707 2.38477 34.9707 2.75586C34.9707 2.76888 35.0781 3.01302 35.293 3.48828C35.5078 3.96354 35.6152 4.45508 35.6152 4.96289C35.6152 5.62695 35.3483 6.39844 34.8145 7.27734C34.0723 8.41016 33.3952 9.39648 32.7832 10.2363C32.1777 11.0697 31.2663 12.3197 30.0488 13.9863C28.8314 15.653 27.8711 17.0234 27.168 18.0977C26.4648 19.1719 25.8952 20.1517 25.459 21.0371C24.873 22.0007 24.5508 22.8958 24.4922 23.7227C24.5768 24.2435 24.7331 24.6146 24.9609 24.8359C25.1953 25.0508 25.5729 25.2266 26.0938 25.3633C26.6341 25.3372 27.2852 25.1061 28.0469 24.6699C28.8151 24.2272 29.5475 23.7422 30.2441 23.2148C30.9408 22.681 32.2656 21.6491 34.2188 20.1191L34.2969 21.8379C33.9648 22.3327 33.0827 23.1628 31.6504 24.3281C31.2793 24.6341 30.8984 24.9303 30.5078 25.2168L31.7676 24.9043L27.041 33.957H23.9062L26.9043 27.502ZM41.1523 16.5156C43.6003 14.1198 45.8171 11.7533 47.8027 9.41602C49.7949 7.07878 50.9635 5.27214 51.3086 3.99609C50.1693 4.93359 48.9355 6.11523 47.6074 7.54102C46.2793 8.96029 45.0391 10.4577 43.8867 12.0332C42.7409 13.6087 41.8294 15.1029 41.1523 16.5156ZM48.5938 21.6816C48.8542 21.6816 49.0788 21.7077 49.2676 21.7598C50.5371 21.6556 51.7383 21.1608 52.8711 20.2754L53.1934 21.5156C52.4707 22.3164 51.556 22.9447 50.4492 23.4004C49.349 23.8561 48.1543 24.084 46.8652 24.084C44.5931 26.597 42.4089 28.0358 40.3125 28.4004C39.1862 28.4004 38.304 27.8893 37.666 26.8672C37.028 25.8451 36.709 24.4746 36.709 22.7559C36.709 20.8288 37.1061 18.7812 37.9004 16.6133C38.7012 14.4453 39.9186 12.362 41.5527 10.3633C42.8158 8.76172 44.4922 7.01367 46.582 5.11914C48.6719 3.2181 50.6478 1.80534 52.5098 0.880859C52.8874 0.718099 53.1934 0.636719 53.4277 0.636719C54.1504 0.636719 54.5117 1.15755 54.5117 2.19922C54.5117 3.07161 54.2578 4.01888 53.75 5.04102C53.099 6.25846 52.1842 7.58008 51.0059 9.00586C49.8275 10.4251 48.6361 11.75 47.4316 12.9805C46.2337 14.2109 44.6908 15.7376 42.8027 17.5605C40.9212 19.377 39.9284 20.3372 39.8242 20.4414C39.7201 20.793 39.6159 21.3398 39.5117 22.082C39.5117 22.8503 39.6908 23.498 40.0488 24.0254C40.4134 24.5462 40.8854 24.8327 41.4648 24.8848C42.3958 24.7936 43.3301 24.084 44.2676 22.7559C44.0072 22.3913 43.8346 21.8997 43.75 21.2812C43.75 20.4284 44.0625 19.5039 44.6875 18.5078C45.319 17.5117 46.0742 16.6719 46.9531 15.9883C47.832 15.3047 48.5905 14.9629 49.2285 14.9629C50.0293 14.9629 50.4688 15.4544 50.5469 16.4375C50.5469 17.0625 50.4297 17.6973 50.1953 18.3418C49.9609 18.9798 49.6452 19.6732 49.248 20.4219C48.8509 21.1641 48.6328 21.584 48.5938 21.6816ZM59.8145 20.2754C61.0254 19.8262 62.0768 19.2891 62.9688 18.6641C63.8672 18.0391 64.554 17.4336 65.0293 16.8477C65.5046 16.2552 65.7422 15.7995 65.7422 15.4805C65.7422 15.3828 65.7292 15.3145 65.7031 15.2754C65.6836 15.2363 65.6673 15.2103 65.6543 15.1973C64.9251 15.1973 63.9518 15.6367 62.7344 16.5156C61.5169 17.3945 60.5436 18.6478 59.8145 20.2754ZM59.7363 22.1602C59.6452 22.4922 59.5671 22.8242 59.502 23.1562C59.502 23.7617 59.7396 24.2435 60.2148 24.6016C60.6901 24.9596 61.3053 25.1582 62.0605 25.1973C62.2754 25.1452 62.5163 25.1191 62.7832 25.1191C63.6947 24.9564 64.7298 24.5169 65.8887 23.8008C67.0475 23.0846 68.5319 21.9779 70.3418 20.4805L70.7422 22.082C69.3229 23.6055 67.9753 24.8522 66.6992 25.8223C65.4232 26.7923 64.235 27.5052 63.1348 27.9609C62.0345 28.4167 61.0221 28.6445 60.0977 28.6445C58.737 28.6445 57.653 28.166 56.8457 27.209C56.0384 26.2454 55.6152 25.002 55.5762 23.4785C55.5762 21.8704 56.0677 20.2526 57.0508 18.625C58.0404 16.9974 59.3522 15.6465 60.9863 14.5723C62.627 13.498 64.3457 12.9219 66.1426 12.8438C68.2194 12.8438 69.2578 13.5241 69.2578 14.8848C69.2578 15.6986 68.9518 16.4961 68.3398 17.2773C67.8646 17.9023 67.2493 18.4818 66.4941 19.0156C65.7389 19.5495 64.9447 20.0182 64.1113 20.4219C63.2845 20.819 62.5911 21.125 62.0312 21.3398C61.4714 21.5482 60.7064 21.8216 59.7363 22.1602ZM80.5762 15.3535C80.498 15.4902 80.4427 15.5846 80.4102 15.6367L76.4746 22.2969C76.3704 22.4792 76.1523 22.8763 75.8203 23.4883C75.4883 24.0938 75.1921 24.7415 74.9316 25.4316C74.6777 26.1217 74.5508 26.7305 74.5508 27.2578C74.5508 27.4531 74.5768 27.6387 74.6289 27.8145C74.6289 28.179 74.5345 28.3613 74.3457 28.3613C73.8639 28.3613 73.151 27.9935 72.207 27.2578C72.0052 27.1016 71.8783 26.7891 71.8262 26.3203C71.8522 25.6562 72.0508 24.8164 72.4219 23.8008C72.7995 22.7852 73.2259 21.89 73.7012 21.1152C74.0072 20.5879 74.3294 20.0638 74.668 19.543C75.013 19.0221 75.2995 18.599 75.5273 18.2734C75.7617 17.9479 76.1849 17.3652 76.7969 16.5254C77.1484 16.0371 77.4186 15.6628 77.6074 15.4023C77.2819 15.4154 76.9759 15.4349 76.6895 15.4609L74.9707 16.1152C74.8535 16.1152 74.7721 16.0957 74.7266 16.0566C74.6875 16.0241 74.6549 15.9492 74.6289 15.832C74.375 15.9036 74.1471 15.9948 73.9453 16.1055C73.3984 16.2617 73.0599 16.252 72.9297 16.0762C72.5977 15.64 72.6595 14.8359 73.1152 13.6641C73.2129 13.4232 73.5905 13.1823 74.248 12.9414C75.2637 12.681 76.6602 12.5085 78.4375 12.4238C78.7826 12.4043 79.1211 12.3913 79.4531 12.3848C79.6419 12.3197 79.8014 12.2871 79.9316 12.2871C80.0423 12.2871 80.1465 12.3132 80.2441 12.3652C81.3314 12.3522 82.3568 12.3848 83.3203 12.4629C84.3164 12.5215 85.3223 12.5964 86.3379 12.6875C86.7025 12.7201 87.0508 12.7559 87.3828 12.7949C87.4805 12.7363 87.5716 12.6842 87.6562 12.6387C88.0599 12.4499 88.3822 12.3555 88.623 12.3555C88.9355 12.3555 89.196 12.5638 89.4043 12.9805V13C90.0814 13.0781 91.0547 13.1888 92.3242 13.332C93.0404 13.4232 93.6393 13.498 94.1211 13.5566C94.1602 13.5306 94.1992 13.5046 94.2383 13.4785C94.375 13.4069 94.502 13.3353 94.6191 13.2637L91.6797 11.5254C91.5951 11.4147 91.5658 11.3301 91.5918 11.2715C91.6178 11.2129 91.7122 11.151 91.875 11.0859C92.7539 10.9036 93.5579 10.9655 94.2871 11.2715C95.0098 11.584 95.8138 11.929 96.6992 12.3066C96.7578 12.2936 96.8164 12.2871 96.875 12.2871C97.1094 12.2871 97.3112 12.4043 97.4805 12.6387C98.4505 13.0618 99.1927 13.4004 99.707 13.6543C100.273 13.9473 100.641 14.2044 100.811 14.4258C101.025 14.7057 100.889 15.0247 100.4 15.3828C99.9121 15.7409 99.4076 15.9915 98.8867 16.1348C98.6393 16.2064 98.3919 16.2552 98.1445 16.2812C97.9036 16.3073 97.6693 16.3171 97.4414 16.3105C97.2917 16.3105 97.1289 16.3073 96.9531 16.3008L93.4082 22.2969C93.304 22.4792 93.0859 22.8763 92.7539 23.4883C92.4284 24.0938 92.1354 24.7415 91.875 25.4316C91.6146 26.1217 91.4844 26.7305 91.4844 27.2578C91.4844 27.4531 91.5104 27.6387 91.5625 27.8145C91.5625 28.179 91.4714 28.3613 91.2891 28.3613C90.8073 28.3613 90.0911 27.9935 89.1406 27.2578C88.9388 27.1016 88.8118 26.7891 88.7598 26.3203C88.7858 25.6562 88.9876 24.8164 89.3652 23.8008C89.7428 22.7852 90.166 21.89 90.6348 21.1152C90.9473 20.5879 91.2728 20.0638 91.6113 19.543C91.9564 19.0221 92.2428 18.599 92.4707 18.2734C92.7051 17.9479 93.125 17.3652 93.7305 16.5254C93.8346 16.3822 93.9323 16.2487 94.0234 16.125L92.1875 16.0176L91.9141 16.1152C91.7904 16.1152 91.7057 16.0957 91.6602 16.0566C91.6471 16.0436 91.6309 16.0176 91.6113 15.9785L89.0332 15.8223L85.166 22.3555C85.0618 22.5443 84.8438 22.9447 84.5117 23.5566C84.1797 24.1621 83.8835 24.8099 83.623 25.5C83.3691 26.1901 83.2422 26.7956 83.2422 27.3164C83.2422 27.5117 83.265 27.7005 83.3105 27.8828C83.3105 28.2474 83.2194 28.4297 83.0371 28.4297C82.5553 28.4297 81.8424 28.0586 80.8984 27.3164C80.6901 27.1667 80.5632 26.8574 80.5176 26.3887C80.5436 25.7181 80.7422 24.875 81.1133 23.8594C81.4909 22.8438 81.9173 21.9486 82.3926 21.1738C82.6986 20.653 83.0208 20.1322 83.3594 19.6113C83.7044 19.0905 83.9909 18.6673 84.2188 18.3418C84.4531 18.0163 84.8763 17.4303 85.4883 16.584C85.7617 16.1999 85.9896 15.8841 86.1719 15.6367L85.2344 15.5781L83.6621 16.1836C83.5384 16.1836 83.4538 16.1641 83.4082 16.125C83.3691 16.0859 83.3366 16.0046 83.3105 15.8809C83.3301 15.7376 83.3626 15.6009 83.4082 15.4707C83.0371 15.4512 82.3145 15.4186 81.2402 15.373C81.0189 15.3665 80.7975 15.36 80.5762 15.3535ZM105.615 23.6836C105.55 23.8724 105.465 24.0938 105.361 24.3477C105.257 24.6016 105.088 24.8522 104.854 25.0996L104.648 25.3145C106.745 25.2559 108.467 25.041 109.814 24.6699C111.162 24.2988 112.126 23.804 112.705 23.1855C113.402 22.4434 113.571 21.61 113.213 20.6855C112.803 19.2142 111.468 18.446 109.209 18.3809C108.597 18.4199 107.819 18.5013 106.875 18.625L106.641 19.5137C107.285 19.6048 107.751 19.7285 108.037 19.8848C108.324 20.041 108.415 20.1712 108.311 20.2754C108.18 20.4251 107.907 20.5 107.49 20.5C107.165 20.5 106.777 20.4512 106.328 20.3535L105.615 23.6836ZM104.414 20.041C103.424 19.7415 102.809 19.3835 102.568 18.9668C102.334 18.5436 102.425 18.1009 102.842 17.6387C103.402 17.0918 104.242 16.6133 105.361 16.2031C105.687 15.3112 105.954 14.5723 106.162 13.9863C106.377 13.3939 106.576 12.9154 106.758 12.5508C106.947 12.1797 107.204 11.8151 107.529 11.457C107.738 11.2357 107.975 11.0469 108.242 10.8906C108.516 10.7344 108.757 10.6562 108.965 10.6562C109.447 10.6562 109.626 10.9362 109.502 11.4961C109.469 11.6198 109.411 11.8802 109.326 12.2773C109.242 12.6745 109.163 12.9772 109.092 13.1855C109.027 13.3874 108.926 13.5632 108.789 13.7129C108.548 13.9668 108.285 14.0938 107.998 14.0938L107.451 15.7734C107.686 15.7539 108.034 15.7214 108.496 15.6758C108.958 15.6302 109.359 15.5977 109.697 15.5781C110.876 15.5911 111.989 15.7279 113.037 15.9883C114.092 16.2487 114.928 16.6719 115.547 17.2578C116.165 17.8372 116.406 18.625 116.27 19.6211C116.139 20.6107 115.495 21.7988 114.336 23.1855C114.069 23.5046 113.87 23.7357 113.74 23.8789C112.139 25.5781 110.309 26.7728 108.252 27.4629C106.449 28.0749 104.59 28.4167 102.676 28.4883L103.496 25.0996L104.414 20.041ZM123.232 10.3438L119.727 28.3027H116.992L120.488 10.3438H123.232ZM147.48 23L147.402 22.8438C146.152 24.1523 145.186 25.1289 144.502 25.7734C143.825 26.418 143.174 26.9258 142.549 27.2969C141.93 27.6615 141.335 27.8438 140.762 27.8438C139.844 27.7201 139.141 27.3066 138.652 26.6035C138.164 25.9004 137.92 25.0052 137.92 23.918C137.92 22.4336 138.294 20.9004 139.043 19.3184C139.792 17.7363 140.811 16.4277 142.1 15.3926C143.389 14.3574 144.785 13.8398 146.289 13.8398C147.194 13.8398 147.646 14.0807 147.646 14.5625C147.646 14.9922 147.324 15.5651 146.68 16.2812C145.221 17.9089 143.916 19.11 142.764 19.8848C141.605 20.7376 140.964 21.8021 140.84 23.0781C140.898 23.1888 140.928 23.3223 140.928 23.4785C140.928 23.6217 141.019 23.7292 141.201 23.8008C142.132 23.6055 143.047 23.2083 143.945 22.6094C144.85 22.0039 145.713 21.3236 146.533 20.5684C147.354 19.8132 148.245 18.9831 149.209 18.0781C151.833 15.4544 153.831 13.7357 155.205 12.9219C155.309 12.8698 155.443 12.8438 155.605 12.8438C155.885 12.8438 156.107 13.0553 156.27 13.4785C156.439 13.8952 156.523 14.39 156.523 14.9629C156.523 15.4707 156.471 15.8288 156.367 16.0371C155.977 16.6165 155.254 17.4173 154.199 18.4395C153.145 19.4551 152.34 20.3372 151.787 21.0859C151.24 21.8281 150.924 22.681 150.84 23.6445C150.977 23.9635 151.087 24.1621 151.172 24.2402C151.257 24.3184 151.455 24.3997 151.768 24.4844C153.005 24.3802 155.085 23.0977 158.008 20.6367L158.242 22.3555C156.751 23.8919 155.469 25.1257 154.395 26.0566C153.32 26.9876 152.367 27.6875 151.533 28.1562C150.7 28.625 149.951 28.8789 149.287 28.918C148.519 28.918 147.887 28.6999 147.393 28.2637C146.904 27.8275 146.641 27.1667 146.602 26.2812C146.693 25.194 146.986 24.1003 147.48 23ZM11.2988 57.7617L11.377 57.918C12.627 56.6094 13.5905 55.6328 14.2676 54.9883C14.9512 54.3438 15.6022 53.8392 16.2207 53.4746C16.8457 53.1035 17.4447 52.918 18.0176 52.918C18.9355 53.0417 19.6387 53.4551 20.127 54.1582C20.6152 54.8613 20.8594 55.7565 20.8594 56.8438C20.8594 58.3281 20.485 59.8613 19.7363 61.4434C18.9876 63.0254 17.9688 64.334 16.6797 65.3691C15.3906 66.4043 13.9941 66.9219 12.4902 66.9219C11.5853 66.9219 11.1328 66.681 11.1328 66.1992C11.1328 65.7695 11.4551 65.1966 12.0996 64.4805C13.5579 62.8529 14.8633 61.6517 16.0156 60.877C17.1745 60.0241 17.8158 58.9596 17.9395 57.6836C17.8809 57.5729 17.8516 57.4395 17.8516 57.2832C17.8516 57.14 17.7604 57.0326 17.5781 56.9609C16.6471 57.1562 15.7292 57.5566 14.8242 58.1621C13.9258 58.7611 13.0664 59.4382 12.2461 60.1934C11.4258 60.9486 10.5339 61.7786 9.57031 62.6836C6.94661 65.3073 4.94792 67.026 3.57422 67.8398C3.47005 67.8919 3.33659 67.918 3.17383 67.918C2.89388 67.918 2.66927 67.7064 2.5 67.2832C2.33724 66.8665 2.25586 66.3717 2.25586 65.7988C2.25586 65.291 2.30794 64.9329 2.41211 64.7246C2.80273 64.1452 3.52539 63.3477 4.58008 62.332C5.63477 61.3099 6.43555 60.4277 6.98242 59.6855C7.53581 58.9368 7.85482 58.0807 7.93945 57.1172C7.80273 56.7982 7.69206 56.5996 7.60742 56.5215C7.52279 56.4434 7.32422 56.362 7.01172 56.2773C5.77474 56.3815 3.69466 57.6641 0.771484 60.125L0.537109 58.4062C2.02799 56.8698 3.31055 55.6361 4.38477 54.7051C5.45898 53.7741 6.41276 53.0742 7.24609 52.6055C8.07943 52.1367 8.82812 51.8828 9.49219 51.8438C10.2604 51.8438 10.8887 52.0618 11.377 52.498C11.8717 52.9342 12.1387 53.5951 12.1777 54.4805C12.0866 55.5677 11.7936 56.6615 11.2988 57.7617ZM30.9375 56.2773C29.0299 57.293 27.5651 58.2598 26.543 59.1777C25.5273 60.0892 24.9935 61.2708 24.9414 62.7227C24.9414 63.7318 25.4883 64.2786 26.582 64.3633C27.7409 64.2526 28.8346 63.7057 29.8633 62.7227C29.5182 62.1237 29.3034 61.5215 29.2188 60.916C29.2904 59.6921 29.8633 58.1458 30.9375 56.2773ZM34.3066 54.4414C35.2897 54.5586 35.7812 55.304 35.7812 56.6777C35.7812 58.1035 35.2604 59.6921 34.2188 61.4434C34.4336 61.4434 34.5931 61.4694 34.6973 61.5215C35.2051 61.4824 35.7259 61.2871 36.2598 60.9355C36.7936 60.584 37.4609 60.0306 38.2617 59.2754L38.7402 61.0039C37.8027 62.2604 36.8359 63.11 35.8398 63.5527C34.8438 63.9889 33.6523 64.2298 32.2656 64.2754C30.306 66.196 28.3594 67.1562 26.4258 67.1562C24.987 67.1562 23.8802 66.5736 23.1055 65.4082C22.3307 64.2428 21.9434 62.8919 21.9434 61.3555C21.9434 59.6758 22.4967 58.11 23.6035 56.6582C24.7103 55.1999 26.1198 54.0475 27.832 53.2012C29.5443 52.3483 31.2337 51.9219 32.9004 51.9219C34.3978 51.9219 35.1465 52.3353 35.1465 53.1621C35.1465 53.6634 34.8665 54.0898 34.3066 54.4414ZM50.957 61.0039C47.3633 64.487 44.6159 66.2708 42.7148 66.3555C41.25 66.2839 40.3451 65.0176 40 62.5566C39.9414 62.1465 39.9121 61.8665 39.9121 61.7168C39.9121 60.2129 40.5046 58.8132 41.6895 57.5176C42.8809 56.222 44.196 55.1706 45.6348 54.3633C48.3691 52.7357 50.4753 51.9219 51.9531 51.9219C52.3633 51.9219 52.7799 52.0163 53.2031 52.2051C53.6263 52.3939 53.8379 52.6576 53.8379 52.9961C53.8379 53.5625 53.3984 54.0573 52.5195 54.4805C51.7773 54.9167 51.2044 55.2487 50.8008 55.4766C50.4036 55.6979 49.7852 56.0332 48.9453 56.4824C48.112 56.9316 47.5553 57.2376 47.2754 57.4004C45.8952 58.0775 44.86 58.6862 44.1699 59.2266C43.4863 59.7669 43.0566 60.4766 42.8809 61.3555C42.8809 61.6224 42.8516 61.8372 42.793 62C42.793 62.5143 43.0859 62.8203 43.6719 62.918C43.8346 62.8919 44.0202 62.8529 44.2285 62.8008C44.4368 62.7487 44.5866 62.7227 44.6777 62.7227C45.5697 62.3971 46.3346 62.0228 46.9727 61.5996C47.6172 61.1699 48.2129 60.6816 48.7598 60.1348C49.3066 59.5814 50.0977 58.7155 51.1328 57.5371C52.168 56.3587 52.9622 55.4733 53.5156 54.8809C53.7305 54.666 53.9974 54.5586 54.3164 54.5586C54.7266 54.5586 55.0879 54.7702 55.4004 55.1934C55.7194 55.6165 55.8789 56.0853 55.8789 56.5996C55.8789 56.873 55.8236 57.1139 55.7129 57.3223L52.041 64.1973L52.1191 64.2754L58.1934 59.8809L58.4375 61.5996L49.834 67.9961C49.0202 69.4284 48.0306 70.8477 46.8652 72.2539C45.7064 73.6667 44.5703 74.8223 43.457 75.7207C42.3438 76.6257 41.4583 77.0781 40.8008 77.0781C40.5208 77.0781 40.2897 76.9674 40.1074 76.7461C39.9251 76.5247 39.834 76.2773 39.834 76.0039C39.834 75.0143 40.6348 73.6406 42.2363 71.8828C43.8379 70.1315 45.7715 68.3965 48.0371 66.6777L50.957 61.0039ZM73.125 56.0039V55.916C70.8333 56.7168 69.0267 57.3906 67.7051 57.9375C66.3835 58.4779 65.1693 59.2103 64.0625 60.1348C62.9557 61.0592 62.4023 62.1204 62.4023 63.3184C62.4023 63.7611 62.6432 64.028 63.125 64.1191C64.5182 64.0671 67.8516 61.362 73.125 56.0039ZM75.5273 54.8809C76.2435 55.2389 76.6016 55.7305 76.6016 56.3555C76.6016 57.0065 76.2695 57.7161 75.6055 58.4844C74.043 60.3008 73.2422 61.6582 73.2031 62.5566C73.2422 63.0905 73.5742 63.3997 74.1992 63.4844C74.9089 63.4844 75.7292 63.2207 76.6602 62.6934C77.5911 62.1595 78.7467 61.3294 80.127 60.2031L80.4395 61.8438C79.6582 62.638 78.6686 63.5202 77.4707 64.4902C76.2728 65.4538 75.0814 66.2806 73.8965 66.9707C72.7116 67.6543 71.748 67.9961 71.0059 67.9961C70.0358 67.7812 69.515 67.1172 69.4434 66.0039C69.528 64.7734 70.0488 63.224 71.0059 61.3555L70.9277 61.2773C70.8366 61.349 70.0521 61.9805 68.5742 63.1719C67.0964 64.3633 65.9668 65.2389 65.1855 65.7988C64.4043 66.3587 63.7435 66.7331 63.2031 66.9219C62.7734 66.9219 62.2624 66.681 61.6699 66.1992C61.0775 65.7174 60.5697 65.1022 60.1465 64.3535C59.7298 63.6048 59.5215 62.8724 59.5215 62.1562C59.5215 61.681 59.5475 61.362 59.5996 61.1992C59.8926 60.0794 60.5762 58.9824 61.6504 57.9082C62.7311 56.8275 64.0072 55.8639 65.4785 55.0176C66.9564 54.1712 68.4408 53.4844 69.9316 52.957C71.429 52.4232 72.7474 52.1042 73.8867 52H74.2871C74.9056 52 75.485 52.1823 76.0254 52.5469C76.5723 52.9115 76.8457 53.3835 76.8457 53.9629C76.8457 54.2819 76.4062 54.5879 75.5273 54.8809ZM93.3203 56.7559C97.207 54.1452 99.873 52.8398 101.318 52.8398C101.865 52.8398 102.288 53.0449 102.588 53.4551C102.887 53.8587 103.037 54.334 103.037 54.8809C103.037 56.9186 100.892 59.8125 96.6016 63.5625C97.2396 63.5625 97.6921 63.5885 97.959 63.6406C98.6882 63.6081 99.3392 63.4876 99.9121 63.2793C100.485 63.071 101.165 62.6738 101.953 62.0879C102.741 61.502 103.77 60.6328 105.039 59.4805L105.361 61.4434C104.033 62.7064 102.721 63.7676 101.426 64.627C100.137 65.4863 98.9225 66.1243 97.7832 66.541C96.6439 66.9512 95.5827 67.1562 94.5996 67.1562C93.3952 67.1562 92.3958 66.8372 91.6016 66.1992C91.1849 66.3685 90.5436 66.502 89.6777 66.5996C89.0007 66.502 88.5221 66.3945 88.2422 66.2773C87.9167 66.7852 87.4121 67.7292 86.7285 69.1094C86.0449 70.4896 85.5013 71.5605 85.0977 72.3223C84.7005 73.0905 84.2611 73.7741 83.7793 74.373C83.2975 74.9785 82.8385 75.2812 82.4023 75.2812C81.8099 75.1055 81.5137 74.4512 81.5137 73.3184C81.5137 71.86 81.9694 70.4082 82.8809 68.9629C83.1478 68.5397 83.6165 67.8138 84.2871 66.7852C84.9577 65.75 85.5339 64.8581 86.0156 64.1094C86.5039 63.3607 87.1159 62.3841 87.8516 61.1797C88.5938 59.9753 89.4303 58.582 90.3613 57V56.8438L84.0332 62.918L83.877 61.082L91.6797 52.5566C94.0885 49.946 95.3418 48.5885 95.4395 48.4844C96.0189 47.8138 96.7773 47.4785 97.7148 47.4785C98.0794 47.4785 98.457 47.5566 98.8477 47.7129C99.2383 47.8691 99.4336 48.097 99.4336 48.3965C99.4336 48.722 99.2611 49.0898 98.916 49.5C98.5775 49.9102 97.9297 50.6198 96.9727 51.6289C96.0221 52.638 95.2507 53.5365 94.6582 54.3242C94.0658 55.1055 93.6198 55.916 93.3203 56.7559ZM90.918 62.5566C91.0807 62.5046 91.3607 62.4785 91.7578 62.4785C92.4349 62.4785 93.2747 62.625 94.2773 62.918C95.5729 61.4076 96.4095 60.4212 96.7871 59.959C97.1712 59.4967 97.4805 59.0475 97.7148 58.6113C97.9557 58.1686 98.0762 57.7389 98.0762 57.3223C98.0762 57.1074 97.9557 57 97.7148 57C97.2982 57 96.6406 57.2865 95.7422 57.8594C94.8503 58.4258 93.9518 59.1419 93.0469 60.0078C92.1419 60.8672 91.4323 61.7168 90.918 62.5566ZM117.949 56.1797L124.893 52.8887C126.038 52.3288 126.771 52.0488 127.09 52.0488C127.292 52.0488 127.393 52.1693 127.393 52.4102C127.393 52.7812 127.259 53.1589 126.992 53.543C126.732 53.9206 126.406 54.2363 126.016 54.4902C125.625 54.7376 125.251 54.8711 124.893 54.8906C124.84 54.8776 124.769 54.8646 124.678 54.8516C124.587 54.832 124.499 54.8125 124.414 54.793C122.318 55.8997 120.452 56.8503 118.818 57.6445C117.184 58.4388 116.191 58.9401 115.84 59.1484C115.488 59.3503 115.27 59.5749 115.186 59.8223C115.186 59.9069 115.163 60.0111 115.117 60.1348C115.143 60.2715 115.241 60.4082 115.41 60.5449C115.579 60.6816 115.895 60.8802 116.357 61.1406L122.891 64.9004C123.242 65.1022 123.6 65.4212 123.965 65.8574C124.329 66.2936 124.512 66.7949 124.512 67.3613C124.466 68.11 124.268 68.4844 123.916 68.4844C123.747 68.4844 123.405 68.3477 122.891 68.0742L113.281 62.7617L111.377 65.0469C111.377 65.3138 111.27 65.6133 111.055 65.9453C110.846 66.2773 110.576 66.5964 110.244 66.9023C109.912 67.2018 109.587 67.4329 109.268 67.5957C108.929 67.7585 108.623 67.8398 108.35 67.8398C108.031 67.8398 107.845 67.6803 107.793 67.3613C107.852 66.9902 108.018 66.6159 108.291 66.2383L111.895 61.6387C111.667 61.3262 111.523 60.9681 111.465 60.5645C111.484 60.1413 111.676 59.7669 112.041 59.4414C112.406 59.1094 113.04 58.709 113.945 58.2402C114.857 57.765 115.365 57.498 115.469 57.4395L117.812 53.8652C116.478 54.1582 115.257 54.513 114.15 54.9297C113.044 55.3398 112.051 55.763 111.172 56.1992C110.293 56.6354 109.528 57.013 108.877 57.332C108.226 57.6445 107.689 57.8398 107.266 57.918C106.966 57.918 106.758 57.8561 106.641 57.7324C106.53 57.6022 106.462 57.4102 106.436 57.1562C106.449 56.8698 106.507 56.554 106.611 56.209C106.715 55.8574 106.842 55.4831 106.992 55.0859C107.142 54.6823 107.217 54.4577 107.217 54.4121C107.314 54.1582 107.523 53.9303 107.842 53.7285C108.167 53.5267 108.398 53.3639 108.535 53.2402C109.518 52.4785 110.169 52.0977 110.488 52.0977C110.586 52.0977 110.635 52.1367 110.635 52.2148C110.635 52.3776 110.511 52.6022 110.264 52.8887C110.016 53.1686 109.704 53.4128 109.326 53.6211C110.12 53.3151 110.902 53.0091 111.67 52.7031C112.445 52.3971 113.164 52.1335 113.828 51.9121C114.492 51.6908 115.195 51.5052 115.938 51.3555C116.686 51.1992 117.428 51.1211 118.164 51.1211C118.438 51.1211 118.698 51.2383 118.945 51.4727C119.193 51.707 119.391 51.9902 119.541 52.3223C119.691 52.6478 119.766 52.9375 119.766 53.1914C119.766 53.4779 119.717 53.6699 119.619 53.7676L117.949 56.1797ZM138.027 62L137.949 61.8438C136.699 63.1523 135.732 64.1289 135.049 64.7734C134.372 65.418 133.721 65.9258 133.096 66.2969C132.477 66.6615 131.882 66.8438 131.309 66.8438C130.391 66.7201 129.688 66.3066 129.199 65.6035C128.711 64.9004 128.467 64.0052 128.467 62.918C128.467 61.4336 128.841 59.9004 129.59 58.3184C130.339 56.7363 131.357 55.4277 132.646 54.3926C133.936 53.3574 135.332 52.8398 136.836 52.8398C137.741 52.8398 138.193 53.0807 138.193 53.5625C138.193 53.9922 137.871 54.5651 137.227 55.2812C135.768 56.9089 134.463 58.11 133.311 58.8848C132.152 59.7376 131.51 60.8021 131.387 62.0781C131.445 62.1888 131.475 62.3223 131.475 62.4785C131.475 62.6217 131.566 62.7292 131.748 62.8008C132.679 62.6055 133.594 62.2083 134.492 61.6094C135.397 61.0039 136.26 60.3236 137.08 59.5684C137.9 58.8132 138.792 57.9831 139.756 57.0781C142.38 54.4544 144.378 52.7357 145.752 51.9219C145.856 51.8698 145.99 51.8438 146.152 51.8438C146.432 51.8438 146.654 52.0553 146.816 52.4785C146.986 52.8952 147.07 53.39 147.07 53.9629C147.07 54.4707 147.018 54.8288 146.914 55.0371C146.523 55.6165 145.801 56.4173 144.746 57.4395C143.691 58.4551 142.887 59.3372 142.334 60.0859C141.787 60.8281 141.471 61.681 141.387 62.6445C141.523 62.9635 141.634 63.1621 141.719 63.2402C141.803 63.3184 142.002 63.3997 142.314 63.4844C143.551 63.3802 145.632 62.0977 148.555 59.6367L148.789 61.3555C147.298 62.8919 146.016 64.1257 144.941 65.0566C143.867 65.9876 142.913 66.6875 142.08 67.1562C141.247 67.625 140.498 67.8789 139.834 67.918C139.066 67.918 138.434 67.6999 137.939 67.2637C137.451 66.8275 137.188 66.1667 137.148 65.2812C137.24 64.194 137.533 63.1003 138.027 62Z" fill="#1E1E1E"/>
</svg>
