<svg width="64" height="64" viewBox="0 0 64 64" fill="none" xmlns="http://www.w3.org/2000/svg">
<path d="M6.67962 14.1099L18.0824 2.70711C18.4729 2.31658 19.1061 2.31658 19.4966 2.70711L30.7139 13.9245C31.1045 14.315 31.1045 14.9482 30.7139 15.3387L22.9667 23.086C22.358 23.6947 22.207 24.6246 22.592 25.3946L24.8345 29.8796C27.0601 34.3307 30.6693 37.9399 35.1204 40.1655L39.6054 42.408C40.3754 42.793 41.3053 42.642 41.914 42.0333L49.6613 34.2861C50.0518 33.8955 50.685 33.8955 51.0755 34.2861L62.2929 45.5034C62.6834 45.8939 62.6834 46.5271 62.2929 46.9176L50.8902 58.3204C48.7788 60.4317 45.4362 60.6693 43.0475 58.8777L24.5759 45.0241C22.8324 43.7164 21.2836 42.1676 19.9759 40.4241L6.12226 21.9525C4.33072 19.5638 4.56827 16.2212 6.67962 14.1099Z" fill="#F7367C"/>
</svg>
